<mxfile host="app.diagrams.net" modified="2023-03-15T03:10:21.166Z" agent="5.0 (Windows NT 10.0; Win64; x64) AppleWebKit/537.36 (KHTML, like Gecko) Chrome/111.0.0.0 Safari/537.36" version="20.6.0" etag="pA0N_W6fJAec5nJZg4xj" type="github">
  <diagram id="UuphVfFTezDoUwkXbSkG" name="Page-1">
    <mxGraphModel dx="1038" dy="481" grid="1" gridSize="10" guides="1" tooltips="1" connect="1" arrows="1" fold="1" page="1" pageScale="1" pageWidth="850" pageHeight="1100" math="0" shadow="0">
      <root>
        <mxCell id="0" />
        <mxCell id="1" parent="0" />
        <mxCell id="CpG3zTtO4x6-bEGr7pU6-10" style="edgeStyle=orthogonalEdgeStyle;rounded=0;orthogonalLoop=1;jettySize=auto;html=1;entryX=0.5;entryY=0;entryDx=0;entryDy=0;fontSize=14;" edge="1" parent="1" source="CpG3zTtO4x6-bEGr7pU6-1" target="CpG3zTtO4x6-bEGr7pU6-2">
          <mxGeometry relative="1" as="geometry">
            <Array as="points">
              <mxPoint x="398" y="140" />
              <mxPoint x="110" y="140" />
            </Array>
          </mxGeometry>
        </mxCell>
        <mxCell id="CpG3zTtO4x6-bEGr7pU6-11" style="edgeStyle=orthogonalEdgeStyle;rounded=0;orthogonalLoop=1;jettySize=auto;html=1;entryX=0.5;entryY=0;entryDx=0;entryDy=0;fontSize=14;" edge="1" parent="1" source="CpG3zTtO4x6-bEGr7pU6-1" target="CpG3zTtO4x6-bEGr7pU6-3">
          <mxGeometry relative="1" as="geometry">
            <Array as="points">
              <mxPoint x="398" y="140" />
              <mxPoint x="310" y="140" />
            </Array>
          </mxGeometry>
        </mxCell>
        <mxCell id="CpG3zTtO4x6-bEGr7pU6-12" style="edgeStyle=orthogonalEdgeStyle;rounded=0;orthogonalLoop=1;jettySize=auto;html=1;entryX=0.5;entryY=0;entryDx=0;entryDy=0;fontSize=14;" edge="1" parent="1" source="CpG3zTtO4x6-bEGr7pU6-1" target="CpG3zTtO4x6-bEGr7pU6-4">
          <mxGeometry relative="1" as="geometry">
            <Array as="points">
              <mxPoint x="398" y="140" />
              <mxPoint x="500" y="140" />
            </Array>
          </mxGeometry>
        </mxCell>
        <mxCell id="CpG3zTtO4x6-bEGr7pU6-13" style="edgeStyle=orthogonalEdgeStyle;rounded=0;orthogonalLoop=1;jettySize=auto;html=1;entryX=0.5;entryY=0;entryDx=0;entryDy=0;fontSize=14;" edge="1" parent="1" source="CpG3zTtO4x6-bEGr7pU6-1" target="CpG3zTtO4x6-bEGr7pU6-5">
          <mxGeometry relative="1" as="geometry">
            <Array as="points">
              <mxPoint x="398" y="140" />
              <mxPoint x="690" y="140" />
            </Array>
          </mxGeometry>
        </mxCell>
        <mxCell id="CpG3zTtO4x6-bEGr7pU6-1" value="&lt;font style=&quot;font-size: 18px;&quot;&gt;Remoção de CO2&lt;/font&gt;" style="rounded=1;whiteSpace=wrap;html=1;fillColor=#fff2cc;strokeColor=#d6b656;" vertex="1" parent="1">
          <mxGeometry x="290" y="50" width="215" height="60" as="geometry" />
        </mxCell>
        <mxCell id="CpG3zTtO4x6-bEGr7pU6-8" style="edgeStyle=orthogonalEdgeStyle;rounded=0;orthogonalLoop=1;jettySize=auto;html=1;entryX=0;entryY=0.5;entryDx=0;entryDy=0;fontSize=14;" edge="1" parent="1" source="CpG3zTtO4x6-bEGr7pU6-2" target="CpG3zTtO4x6-bEGr7pU6-6">
          <mxGeometry relative="1" as="geometry" />
        </mxCell>
        <mxCell id="CpG3zTtO4x6-bEGr7pU6-9" style="edgeStyle=orthogonalEdgeStyle;rounded=0;orthogonalLoop=1;jettySize=auto;html=1;entryX=0;entryY=0.5;entryDx=0;entryDy=0;fontSize=14;" edge="1" parent="1" source="CpG3zTtO4x6-bEGr7pU6-2" target="CpG3zTtO4x6-bEGr7pU6-7">
          <mxGeometry relative="1" as="geometry" />
        </mxCell>
        <mxCell id="CpG3zTtO4x6-bEGr7pU6-2" value="&lt;font style=&quot;font-size: 14px;&quot;&gt;Absorção&lt;/font&gt;" style="rounded=0;whiteSpace=wrap;html=1;fontSize=18;fillColor=#fff2cc;strokeColor=#d6b656;" vertex="1" parent="1">
          <mxGeometry x="50" y="180" width="120" height="60" as="geometry" />
        </mxCell>
        <mxCell id="CpG3zTtO4x6-bEGr7pU6-16" style="edgeStyle=orthogonalEdgeStyle;rounded=0;orthogonalLoop=1;jettySize=auto;html=1;entryX=0;entryY=0.5;entryDx=0;entryDy=0;fontSize=14;" edge="1" parent="1" source="CpG3zTtO4x6-bEGr7pU6-3" target="CpG3zTtO4x6-bEGr7pU6-14">
          <mxGeometry relative="1" as="geometry" />
        </mxCell>
        <mxCell id="CpG3zTtO4x6-bEGr7pU6-17" style="edgeStyle=orthogonalEdgeStyle;rounded=0;orthogonalLoop=1;jettySize=auto;html=1;entryX=0;entryY=0.5;entryDx=0;entryDy=0;fontSize=14;" edge="1" parent="1" source="CpG3zTtO4x6-bEGr7pU6-3" target="CpG3zTtO4x6-bEGr7pU6-15">
          <mxGeometry relative="1" as="geometry">
            <Array as="points">
              <mxPoint x="310" y="395" />
            </Array>
          </mxGeometry>
        </mxCell>
        <mxCell id="CpG3zTtO4x6-bEGr7pU6-3" value="&lt;font style=&quot;font-size: 14px;&quot;&gt;Adsorção&lt;/font&gt;" style="rounded=0;whiteSpace=wrap;html=1;fontSize=18;fillColor=#fff2cc;strokeColor=#d6b656;" vertex="1" parent="1">
          <mxGeometry x="250" y="180" width="120" height="60" as="geometry" />
        </mxCell>
        <mxCell id="CpG3zTtO4x6-bEGr7pU6-4" value="&lt;font style=&quot;font-size: 14px;&quot;&gt;Criogênico&lt;/font&gt;" style="rounded=0;whiteSpace=wrap;html=1;fontSize=18;fillColor=#fff2cc;strokeColor=#d6b656;" vertex="1" parent="1">
          <mxGeometry x="440" y="180" width="120" height="60" as="geometry" />
        </mxCell>
        <mxCell id="CpG3zTtO4x6-bEGr7pU6-20" style="edgeStyle=orthogonalEdgeStyle;rounded=0;orthogonalLoop=1;jettySize=auto;html=1;entryX=0;entryY=0.5;entryDx=0;entryDy=0;fontSize=14;" edge="1" parent="1" source="CpG3zTtO4x6-bEGr7pU6-5" target="CpG3zTtO4x6-bEGr7pU6-18">
          <mxGeometry relative="1" as="geometry" />
        </mxCell>
        <mxCell id="CpG3zTtO4x6-bEGr7pU6-21" style="edgeStyle=orthogonalEdgeStyle;rounded=0;orthogonalLoop=1;jettySize=auto;html=1;entryX=0;entryY=0.5;entryDx=0;entryDy=0;fontSize=14;" edge="1" parent="1" source="CpG3zTtO4x6-bEGr7pU6-5" target="CpG3zTtO4x6-bEGr7pU6-19">
          <mxGeometry relative="1" as="geometry" />
        </mxCell>
        <mxCell id="CpG3zTtO4x6-bEGr7pU6-5" value="&lt;font style=&quot;font-size: 14px;&quot;&gt;Membranas&lt;/font&gt;" style="rounded=0;whiteSpace=wrap;html=1;fontSize=18;fillColor=#fff2cc;strokeColor=#d6b656;" vertex="1" parent="1">
          <mxGeometry x="630" y="180" width="120" height="60" as="geometry" />
        </mxCell>
        <mxCell id="CpG3zTtO4x6-bEGr7pU6-6" value="&lt;font style=&quot;font-size: 14px;&quot;&gt;Química&amp;nbsp;&lt;/font&gt;" style="rounded=1;whiteSpace=wrap;html=1;fontSize=18;" vertex="1" parent="1">
          <mxGeometry x="130" y="280" width="90" height="50" as="geometry" />
        </mxCell>
        <mxCell id="CpG3zTtO4x6-bEGr7pU6-7" value="&lt;font style=&quot;font-size: 14px;&quot;&gt;Física&lt;/font&gt;" style="rounded=1;whiteSpace=wrap;html=1;fontSize=18;" vertex="1" parent="1">
          <mxGeometry x="130" y="370" width="90" height="50" as="geometry" />
        </mxCell>
        <mxCell id="CpG3zTtO4x6-bEGr7pU6-14" value="&lt;font style=&quot;font-size: 14px;&quot;&gt;Leito de adsorção&lt;/font&gt;" style="rounded=1;whiteSpace=wrap;html=1;fontSize=18;" vertex="1" parent="1">
          <mxGeometry x="335" y="280" width="90" height="50" as="geometry" />
        </mxCell>
        <mxCell id="CpG3zTtO4x6-bEGr7pU6-15" value="&lt;font style=&quot;font-size: 14px;&quot;&gt;Método de Regeneração&lt;/font&gt;" style="rounded=1;whiteSpace=wrap;html=1;fontSize=18;" vertex="1" parent="1">
          <mxGeometry x="327.5" y="370" width="105" height="50" as="geometry" />
        </mxCell>
        <mxCell id="CpG3zTtO4x6-bEGr7pU6-18" value="&lt;span style=&quot;font-size: 14px;&quot;&gt;Poliméricas&lt;/span&gt;" style="rounded=1;whiteSpace=wrap;html=1;fontSize=18;fillColor=#f8cecc;strokeColor=#b85450;" vertex="1" parent="1">
          <mxGeometry x="710" y="270" width="90" height="50" as="geometry" />
        </mxCell>
        <mxCell id="CpG3zTtO4x6-bEGr7pU6-19" value="&lt;span style=&quot;font-size: 14px;&quot;&gt;Cerâmicas&lt;/span&gt;" style="rounded=1;whiteSpace=wrap;html=1;fontSize=18;fillColor=#f8cecc;strokeColor=#b85450;" vertex="1" parent="1">
          <mxGeometry x="710" y="350" width="90" height="50" as="geometry" />
        </mxCell>
      </root>
    </mxGraphModel>
  </diagram>
</mxfile>
